# SO-101 target landing tolerance ring
# 64-segment annular prism; inner radius 0.050 m, outer radius 0.055 m, thickness 0.0001 m
o target_landing_tolerance_ring
v 0.050000000000 0.000000000000 -0.000050000000
v 0.055000000000 0.000000000000 -0.000050000000
v 0.050000000000 0.000000000000 0.000050000000
v 0.055000000000 0.000000000000 0.000050000000
v 0.049759236334 0.004900857016 -0.000050000000
v 0.054735159967 0.005390942718 -0.000050000000
v 0.049759236334 0.004900857016 0.000050000000
v 0.054735159967 0.005390942718 0.000050000000
v 0.049039264020 0.009754516101 -0.000050000000
v 0.053943190422 0.010729967711 -0.000050000000
v 0.049039264020 0.009754516101 0.000050000000
v 0.053943190422 0.010729967711 0.000050000000
v 0.047847016787 0.014514233863 -0.000050000000
v 0.052631718465 0.015965657249 -0.000050000000
v 0.047847016787 0.014514233863 0.000050000000
v 0.052631718465 0.015965657249 0.000050000000
v 0.046193976626 0.019134171618 -0.000050000000
v 0.050813374288 0.021047588780 -0.000050000000
v 0.046193976626 0.019134171618 0.000050000000
v 0.050813374288 0.021047588780 0.000050000000
v 0.044096063217 0.023569836841 -0.000050000000
v 0.048505669539 0.025926820525 -0.000050000000
v 0.044096063217 0.023569836841 0.000050000000
v 0.048505669539 0.025926820525 0.000050000000
v 0.041573480615 0.027778511651 -0.000050000000
v 0.045730828677 0.030556362816 -0.000050000000
v 0.041573480615 0.027778511651 0.000050000000
v 0.045730828677 0.030556362816 0.000050000000
v 0.038650522668 0.031719664208 -0.000050000000
v 0.042515574935 0.034891630629 -0.000050000000
v 0.038650522668 0.031719664208 0.000050000000
v 0.042515574935 0.034891630629 0.000050000000
v 0.035355339059 0.035355339059 -0.000050000000
v 0.038890872965 0.038890872965 -0.000050000000
v 0.035355339059 0.035355339059 0.000050000000
v 0.038890872965 0.038890872965 0.000050000000
v 0.031719664208 0.038650522668 -0.000050000000
v 0.034891630629 0.042515574935 -0.000050000000
v 0.031719664208 0.038650522668 0.000050000000
v 0.034891630629 0.042515574935 0.000050000000
v 0.027778511651 0.041573480615 -0.000050000000
v 0.030556362816 0.045730828677 -0.000050000000
v 0.027778511651 0.041573480615 0.000050000000
v 0.030556362816 0.045730828677 0.000050000000
v 0.023569836841 0.044096063217 -0.000050000000
v 0.025926820525 0.048505669539 -0.000050000000
v 0.023569836841 0.044096063217 0.000050000000
v 0.025926820525 0.048505669539 0.000050000000
v 0.019134171618 0.046193976626 -0.000050000000
v 0.021047588780 0.050813374288 -0.000050000000
v 0.019134171618 0.046193976626 0.000050000000
v 0.021047588780 0.050813374288 0.000050000000
v 0.014514233863 0.047847016787 -0.000050000000
v 0.015965657249 0.052631718465 -0.000050000000
v 0.014514233863 0.047847016787 0.000050000000
v 0.015965657249 0.052631718465 0.000050000000
v 0.009754516101 0.049039264020 -0.000050000000
v 0.010729967711 0.053943190422 -0.000050000000
v 0.009754516101 0.049039264020 0.000050000000
v 0.010729967711 0.053943190422 0.000050000000
v 0.004900857016 0.049759236334 -0.000050000000
v 0.005390942718 0.054735159967 -0.000050000000
v 0.004900857016 0.049759236334 0.000050000000
v 0.005390942718 0.054735159967 0.000050000000
v 0.000000000000 0.050000000000 -0.000050000000
v 0.000000000000 0.055000000000 -0.000050000000
v 0.000000000000 0.050000000000 0.000050000000
v 0.000000000000 0.055000000000 0.000050000000
v -0.004900857016 0.049759236334 -0.000050000000
v -0.005390942718 0.054735159967 -0.000050000000
v -0.004900857016 0.049759236334 0.000050000000
v -0.005390942718 0.054735159967 0.000050000000
v -0.009754516101 0.049039264020 -0.000050000000
v -0.010729967711 0.053943190422 -0.000050000000
v -0.009754516101 0.049039264020 0.000050000000
v -0.010729967711 0.053943190422 0.000050000000
v -0.014514233863 0.047847016787 -0.000050000000
v -0.015965657249 0.052631718465 -0.000050000000
v -0.014514233863 0.047847016787 0.000050000000
v -0.015965657249 0.052631718465 0.000050000000
v -0.019134171618 0.046193976626 -0.000050000000
v -0.021047588780 0.050813374288 -0.000050000000
v -0.019134171618 0.046193976626 0.000050000000
v -0.021047588780 0.050813374288 0.000050000000
v -0.023569836841 0.044096063217 -0.000050000000
v -0.025926820525 0.048505669539 -0.000050000000
v -0.023569836841 0.044096063217 0.000050000000
v -0.025926820525 0.048505669539 0.000050000000
v -0.027778511651 0.041573480615 -0.000050000000
v -0.030556362816 0.045730828677 -0.000050000000
v -0.027778511651 0.041573480615 0.000050000000
v -0.030556362816 0.045730828677 0.000050000000
v -0.031719664208 0.038650522668 -0.000050000000
v -0.034891630629 0.042515574935 -0.000050000000
v -0.031719664208 0.038650522668 0.000050000000
v -0.034891630629 0.042515574935 0.000050000000
v -0.035355339059 0.035355339059 -0.000050000000
v -0.038890872965 0.038890872965 -0.000050000000
v -0.035355339059 0.035355339059 0.000050000000
v -0.038890872965 0.038890872965 0.000050000000
v -0.038650522668 0.031719664208 -0.000050000000
v -0.042515574935 0.034891630629 -0.000050000000
v -0.038650522668 0.031719664208 0.000050000000
v -0.042515574935 0.034891630629 0.000050000000
v -0.041573480615 0.027778511651 -0.000050000000
v -0.045730828677 0.030556362816 -0.000050000000
v -0.041573480615 0.027778511651 0.000050000000
v -0.045730828677 0.030556362816 0.000050000000
v -0.044096063217 0.023569836841 -0.000050000000
v -0.048505669539 0.025926820525 -0.000050000000
v -0.044096063217 0.023569836841 0.000050000000
v -0.048505669539 0.025926820525 0.000050000000
v -0.046193976626 0.019134171618 -0.000050000000
v -0.050813374288 0.021047588780 -0.000050000000
v -0.046193976626 0.019134171618 0.000050000000
v -0.050813374288 0.021047588780 0.000050000000
v -0.047847016787 0.014514233863 -0.000050000000
v -0.052631718465 0.015965657249 -0.000050000000
v -0.047847016787 0.014514233863 0.000050000000
v -0.052631718465 0.015965657249 0.000050000000
v -0.049039264020 0.009754516101 -0.000050000000
v -0.053943190422 0.010729967711 -0.000050000000
v -0.049039264020 0.009754516101 0.000050000000
v -0.053943190422 0.010729967711 0.000050000000
v -0.049759236334 0.004900857016 -0.000050000000
v -0.054735159967 0.005390942718 -0.000050000000
v -0.049759236334 0.004900857016 0.000050000000
v -0.054735159967 0.005390942718 0.000050000000
v -0.050000000000 0.000000000000 -0.000050000000
v -0.055000000000 0.000000000000 -0.000050000000
v -0.050000000000 0.000000000000 0.000050000000
v -0.055000000000 0.000000000000 0.000050000000
v -0.049759236334 -0.004900857016 -0.000050000000
v -0.054735159967 -0.005390942718 -0.000050000000
v -0.049759236334 -0.004900857016 0.000050000000
v -0.054735159967 -0.005390942718 0.000050000000
v -0.049039264020 -0.009754516101 -0.000050000000
v -0.053943190422 -0.010729967711 -0.000050000000
v -0.049039264020 -0.009754516101 0.000050000000
v -0.053943190422 -0.010729967711 0.000050000000
v -0.047847016787 -0.014514233863 -0.000050000000
v -0.052631718465 -0.015965657249 -0.000050000000
v -0.047847016787 -0.014514233863 0.000050000000
v -0.052631718465 -0.015965657249 0.000050000000
v -0.046193976626 -0.019134171618 -0.000050000000
v -0.050813374288 -0.021047588780 -0.000050000000
v -0.046193976626 -0.019134171618 0.000050000000
v -0.050813374288 -0.021047588780 0.000050000000
v -0.044096063217 -0.023569836841 -0.000050000000
v -0.048505669539 -0.025926820525 -0.000050000000
v -0.044096063217 -0.023569836841 0.000050000000
v -0.048505669539 -0.025926820525 0.000050000000
v -0.041573480615 -0.027778511651 -0.000050000000
v -0.045730828677 -0.030556362816 -0.000050000000
v -0.041573480615 -0.027778511651 0.000050000000
v -0.045730828677 -0.030556362816 0.000050000000
v -0.038650522668 -0.031719664208 -0.000050000000
v -0.042515574935 -0.034891630629 -0.000050000000
v -0.038650522668 -0.031719664208 0.000050000000
v -0.042515574935 -0.034891630629 0.000050000000
v -0.035355339059 -0.035355339059 -0.000050000000
v -0.038890872965 -0.038890872965 -0.000050000000
v -0.035355339059 -0.035355339059 0.000050000000
v -0.038890872965 -0.038890872965 0.000050000000
v -0.031719664208 -0.038650522668 -0.000050000000
v -0.034891630629 -0.042515574935 -0.000050000000
v -0.031719664208 -0.038650522668 0.000050000000
v -0.034891630629 -0.042515574935 0.000050000000
v -0.027778511651 -0.041573480615 -0.000050000000
v -0.030556362816 -0.045730828677 -0.000050000000
v -0.027778511651 -0.041573480615 0.000050000000
v -0.030556362816 -0.045730828677 0.000050000000
v -0.023569836841 -0.044096063217 -0.000050000000
v -0.025926820525 -0.048505669539 -0.000050000000
v -0.023569836841 -0.044096063217 0.000050000000
v -0.025926820525 -0.048505669539 0.000050000000
v -0.019134171618 -0.046193976626 -0.000050000000
v -0.021047588780 -0.050813374288 -0.000050000000
v -0.019134171618 -0.046193976626 0.000050000000
v -0.021047588780 -0.050813374288 0.000050000000
v -0.014514233863 -0.047847016787 -0.000050000000
v -0.015965657249 -0.052631718465 -0.000050000000
v -0.014514233863 -0.047847016787 0.000050000000
v -0.015965657249 -0.052631718465 0.000050000000
v -0.009754516101 -0.049039264020 -0.000050000000
v -0.010729967711 -0.053943190422 -0.000050000000
v -0.009754516101 -0.049039264020 0.000050000000
v -0.010729967711 -0.053943190422 0.000050000000
v -0.004900857016 -0.049759236334 -0.000050000000
v -0.005390942718 -0.054735159967 -0.000050000000
v -0.004900857016 -0.049759236334 0.000050000000
v -0.005390942718 -0.054735159967 0.000050000000
v -0.000000000000 -0.050000000000 -0.000050000000
v -0.000000000000 -0.055000000000 -0.000050000000
v -0.000000000000 -0.050000000000 0.000050000000
v -0.000000000000 -0.055000000000 0.000050000000
v 0.004900857016 -0.049759236334 -0.000050000000
v 0.005390942718 -0.054735159967 -0.000050000000
v 0.004900857016 -0.049759236334 0.000050000000
v 0.005390942718 -0.054735159967 0.000050000000
v 0.009754516101 -0.049039264020 -0.000050000000
v 0.010729967711 -0.053943190422 -0.000050000000
v 0.009754516101 -0.049039264020 0.000050000000
v 0.010729967711 -0.053943190422 0.000050000000
v 0.014514233863 -0.047847016787 -0.000050000000
v 0.015965657249 -0.052631718465 -0.000050000000
v 0.014514233863 -0.047847016787 0.000050000000
v 0.015965657249 -0.052631718465 0.000050000000
v 0.019134171618 -0.046193976626 -0.000050000000
v 0.021047588780 -0.050813374288 -0.000050000000
v 0.019134171618 -0.046193976626 0.000050000000
v 0.021047588780 -0.050813374288 0.000050000000
v 0.023569836841 -0.044096063217 -0.000050000000
v 0.025926820525 -0.048505669539 -0.000050000000
v 0.023569836841 -0.044096063217 0.000050000000
v 0.025926820525 -0.048505669539 0.000050000000
v 0.027778511651 -0.041573480615 -0.000050000000
v 0.030556362816 -0.045730828677 -0.000050000000
v 0.027778511651 -0.041573480615 0.000050000000
v 0.030556362816 -0.045730828677 0.000050000000
v 0.031719664208 -0.038650522668 -0.000050000000
v 0.034891630629 -0.042515574935 -0.000050000000
v 0.031719664208 -0.038650522668 0.000050000000
v 0.034891630629 -0.042515574935 0.000050000000
v 0.035355339059 -0.035355339059 -0.000050000000
v 0.038890872965 -0.038890872965 -0.000050000000
v 0.035355339059 -0.035355339059 0.000050000000
v 0.038890872965 -0.038890872965 0.000050000000
v 0.038650522668 -0.031719664208 -0.000050000000
v 0.042515574935 -0.034891630629 -0.000050000000
v 0.038650522668 -0.031719664208 0.000050000000
v 0.042515574935 -0.034891630629 0.000050000000
v 0.041573480615 -0.027778511651 -0.000050000000
v 0.045730828677 -0.030556362816 -0.000050000000
v 0.041573480615 -0.027778511651 0.000050000000
v 0.045730828677 -0.030556362816 0.000050000000
v 0.044096063217 -0.023569836841 -0.000050000000
v 0.048505669539 -0.025926820525 -0.000050000000
v 0.044096063217 -0.023569836841 0.000050000000
v 0.048505669539 -0.025926820525 0.000050000000
v 0.046193976626 -0.019134171618 -0.000050000000
v 0.050813374288 -0.021047588780 -0.000050000000
v 0.046193976626 -0.019134171618 0.000050000000
v 0.050813374288 -0.021047588780 0.000050000000
v 0.047847016787 -0.014514233863 -0.000050000000
v 0.052631718465 -0.015965657249 -0.000050000000
v 0.047847016787 -0.014514233863 0.000050000000
v 0.052631718465 -0.015965657249 0.000050000000
v 0.049039264020 -0.009754516101 -0.000050000000
v 0.053943190422 -0.010729967711 -0.000050000000
v 0.049039264020 -0.009754516101 0.000050000000
v 0.053943190422 -0.010729967711 0.000050000000
v 0.049759236334 -0.004900857016 -0.000050000000
v 0.054735159967 -0.005390942718 -0.000050000000
v 0.049759236334 -0.004900857016 0.000050000000
v 0.054735159967 -0.005390942718 0.000050000000
f 3 4 8
f 3 8 7
f 1 6 2
f 1 5 6
f 2 6 8
f 2 8 4
f 1 3 7
f 1 7 5
f 7 8 12
f 7 12 11
f 5 10 6
f 5 9 10
f 6 10 12
f 6 12 8
f 5 7 11
f 5 11 9
f 11 12 16
f 11 16 15
f 9 14 10
f 9 13 14
f 10 14 16
f 10 16 12
f 9 11 15
f 9 15 13
f 15 16 20
f 15 20 19
f 13 18 14
f 13 17 18
f 14 18 20
f 14 20 16
f 13 15 19
f 13 19 17
f 19 20 24
f 19 24 23
f 17 22 18
f 17 21 22
f 18 22 24
f 18 24 20
f 17 19 23
f 17 23 21
f 23 24 28
f 23 28 27
f 21 26 22
f 21 25 26
f 22 26 28
f 22 28 24
f 21 23 27
f 21 27 25
f 27 28 32
f 27 32 31
f 25 30 26
f 25 29 30
f 26 30 32
f 26 32 28
f 25 27 31
f 25 31 29
f 31 32 36
f 31 36 35
f 29 34 30
f 29 33 34
f 30 34 36
f 30 36 32
f 29 31 35
f 29 35 33
f 35 36 40
f 35 40 39
f 33 38 34
f 33 37 38
f 34 38 40
f 34 40 36
f 33 35 39
f 33 39 37
f 39 40 44
f 39 44 43
f 37 42 38
f 37 41 42
f 38 42 44
f 38 44 40
f 37 39 43
f 37 43 41
f 43 44 48
f 43 48 47
f 41 46 42
f 41 45 46
f 42 46 48
f 42 48 44
f 41 43 47
f 41 47 45
f 47 48 52
f 47 52 51
f 45 50 46
f 45 49 50
f 46 50 52
f 46 52 48
f 45 47 51
f 45 51 49
f 51 52 56
f 51 56 55
f 49 54 50
f 49 53 54
f 50 54 56
f 50 56 52
f 49 51 55
f 49 55 53
f 55 56 60
f 55 60 59
f 53 58 54
f 53 57 58
f 54 58 60
f 54 60 56
f 53 55 59
f 53 59 57
f 59 60 64
f 59 64 63
f 57 62 58
f 57 61 62
f 58 62 64
f 58 64 60
f 57 59 63
f 57 63 61
f 63 64 68
f 63 68 67
f 61 66 62
f 61 65 66
f 62 66 68
f 62 68 64
f 61 63 67
f 61 67 65
f 67 68 72
f 67 72 71
f 65 70 66
f 65 69 70
f 66 70 72
f 66 72 68
f 65 67 71
f 65 71 69
f 71 72 76
f 71 76 75
f 69 74 70
f 69 73 74
f 70 74 76
f 70 76 72
f 69 71 75
f 69 75 73
f 75 76 80
f 75 80 79
f 73 78 74
f 73 77 78
f 74 78 80
f 74 80 76
f 73 75 79
f 73 79 77
f 79 80 84
f 79 84 83
f 77 82 78
f 77 81 82
f 78 82 84
f 78 84 80
f 77 79 83
f 77 83 81
f 83 84 88
f 83 88 87
f 81 86 82
f 81 85 86
f 82 86 88
f 82 88 84
f 81 83 87
f 81 87 85
f 87 88 92
f 87 92 91
f 85 90 86
f 85 89 90
f 86 90 92
f 86 92 88
f 85 87 91
f 85 91 89
f 91 92 96
f 91 96 95
f 89 94 90
f 89 93 94
f 90 94 96
f 90 96 92
f 89 91 95
f 89 95 93
f 95 96 100
f 95 100 99
f 93 98 94
f 93 97 98
f 94 98 100
f 94 100 96
f 93 95 99
f 93 99 97
f 99 100 104
f 99 104 103
f 97 102 98
f 97 101 102
f 98 102 104
f 98 104 100
f 97 99 103
f 97 103 101
f 103 104 108
f 103 108 107
f 101 106 102
f 101 105 106
f 102 106 108
f 102 108 104
f 101 103 107
f 101 107 105
f 107 108 112
f 107 112 111
f 105 110 106
f 105 109 110
f 106 110 112
f 106 112 108
f 105 107 111
f 105 111 109
f 111 112 116
f 111 116 115
f 109 114 110
f 109 113 114
f 110 114 116
f 110 116 112
f 109 111 115
f 109 115 113
f 115 116 120
f 115 120 119
f 113 118 114
f 113 117 118
f 114 118 120
f 114 120 116
f 113 115 119
f 113 119 117
f 119 120 124
f 119 124 123
f 117 122 118
f 117 121 122
f 118 122 124
f 118 124 120
f 117 119 123
f 117 123 121
f 123 124 128
f 123 128 127
f 121 126 122
f 121 125 126
f 122 126 128
f 122 128 124
f 121 123 127
f 121 127 125
f 127 128 132
f 127 132 131
f 125 130 126
f 125 129 130
f 126 130 132
f 126 132 128
f 125 127 131
f 125 131 129
f 131 132 136
f 131 136 135
f 129 134 130
f 129 133 134
f 130 134 136
f 130 136 132
f 129 131 135
f 129 135 133
f 135 136 140
f 135 140 139
f 133 138 134
f 133 137 138
f 134 138 140
f 134 140 136
f 133 135 139
f 133 139 137
f 139 140 144
f 139 144 143
f 137 142 138
f 137 141 142
f 138 142 144
f 138 144 140
f 137 139 143
f 137 143 141
f 143 144 148
f 143 148 147
f 141 146 142
f 141 145 146
f 142 146 148
f 142 148 144
f 141 143 147
f 141 147 145
f 147 148 152
f 147 152 151
f 145 150 146
f 145 149 150
f 146 150 152
f 146 152 148
f 145 147 151
f 145 151 149
f 151 152 156
f 151 156 155
f 149 154 150
f 149 153 154
f 150 154 156
f 150 156 152
f 149 151 155
f 149 155 153
f 155 156 160
f 155 160 159
f 153 158 154
f 153 157 158
f 154 158 160
f 154 160 156
f 153 155 159
f 153 159 157
f 159 160 164
f 159 164 163
f 157 162 158
f 157 161 162
f 158 162 164
f 158 164 160
f 157 159 163
f 157 163 161
f 163 164 168
f 163 168 167
f 161 166 162
f 161 165 166
f 162 166 168
f 162 168 164
f 161 163 167
f 161 167 165
f 167 168 172
f 167 172 171
f 165 170 166
f 165 169 170
f 166 170 172
f 166 172 168
f 165 167 171
f 165 171 169
f 171 172 176
f 171 176 175
f 169 174 170
f 169 173 174
f 170 174 176
f 170 176 172
f 169 171 175
f 169 175 173
f 175 176 180
f 175 180 179
f 173 178 174
f 173 177 178
f 174 178 180
f 174 180 176
f 173 175 179
f 173 179 177
f 179 180 184
f 179 184 183
f 177 182 178
f 177 181 182
f 178 182 184
f 178 184 180
f 177 179 183
f 177 183 181
f 183 184 188
f 183 188 187
f 181 186 182
f 181 185 186
f 182 186 188
f 182 188 184
f 181 183 187
f 181 187 185
f 187 188 192
f 187 192 191
f 185 190 186
f 185 189 190
f 186 190 192
f 186 192 188
f 185 187 191
f 185 191 189
f 191 192 196
f 191 196 195
f 189 194 190
f 189 193 194
f 190 194 196
f 190 196 192
f 189 191 195
f 189 195 193
f 195 196 200
f 195 200 199
f 193 198 194
f 193 197 198
f 194 198 200
f 194 200 196
f 193 195 199
f 193 199 197
f 199 200 204
f 199 204 203
f 197 202 198
f 197 201 202
f 198 202 204
f 198 204 200
f 197 199 203
f 197 203 201
f 203 204 208
f 203 208 207
f 201 206 202
f 201 205 206
f 202 206 208
f 202 208 204
f 201 203 207
f 201 207 205
f 207 208 212
f 207 212 211
f 205 210 206
f 205 209 210
f 206 210 212
f 206 212 208
f 205 207 211
f 205 211 209
f 211 212 216
f 211 216 215
f 209 214 210
f 209 213 214
f 210 214 216
f 210 216 212
f 209 211 215
f 209 215 213
f 215 216 220
f 215 220 219
f 213 218 214
f 213 217 218
f 214 218 220
f 214 220 216
f 213 215 219
f 213 219 217
f 219 220 224
f 219 224 223
f 217 222 218
f 217 221 222
f 218 222 224
f 218 224 220
f 217 219 223
f 217 223 221
f 223 224 228
f 223 228 227
f 221 226 222
f 221 225 226
f 222 226 228
f 222 228 224
f 221 223 227
f 221 227 225
f 227 228 232
f 227 232 231
f 225 230 226
f 225 229 230
f 226 230 232
f 226 232 228
f 225 227 231
f 225 231 229
f 231 232 236
f 231 236 235
f 229 234 230
f 229 233 234
f 230 234 236
f 230 236 232
f 229 231 235
f 229 235 233
f 235 236 240
f 235 240 239
f 233 238 234
f 233 237 238
f 234 238 240
f 234 240 236
f 233 235 239
f 233 239 237
f 239 240 244
f 239 244 243
f 237 242 238
f 237 241 242
f 238 242 244
f 238 244 240
f 237 239 243
f 237 243 241
f 243 244 248
f 243 248 247
f 241 246 242
f 241 245 246
f 242 246 248
f 242 248 244
f 241 243 247
f 241 247 245
f 247 248 252
f 247 252 251
f 245 250 246
f 245 249 250
f 246 250 252
f 246 252 248
f 245 247 251
f 245 251 249
f 251 252 256
f 251 256 255
f 249 254 250
f 249 253 254
f 250 254 256
f 250 256 252
f 249 251 255
f 249 255 253
f 255 256 4
f 255 4 3
f 253 2 254
f 253 1 2
f 254 2 4
f 254 4 256
f 253 255 3
f 253 3 1
