solid target_landing_tolerance_ring
  facet normal 0.000000000 0.000000000 1.000000000
    outer loop
      vertex 0.050000000 0.000000000 0.000000000
      vertex 0.055000000 0.000000000 0.000000000
      vertex 0.054735160 0.005390943 0.000000000
    endloop
  endfacet
  facet normal 0.000000000 0.000000000 1.000000000
    outer loop
      vertex 0.050000000 0.000000000 0.000000000
      vertex 0.054735160 0.005390943 0.000000000
      vertex 0.049759236 0.004900857 0.000000000
    endloop
  endfacet
  facet normal 0.000000000 0.000000000 1.000000000
    outer loop
      vertex 0.049759236 0.004900857 0.000000000
      vertex 0.054735160 0.005390943 0.000000000
      vertex 0.053943190 0.010729968 0.000000000
    endloop
  endfacet
  facet normal 0.000000000 0.000000000 1.000000000
    outer loop
      vertex 0.049759236 0.004900857 0.000000000
      vertex 0.053943190 0.010729968 0.000000000
      vertex 0.049039264 0.009754516 0.000000000
    endloop
  endfacet
  facet normal 0.000000000 0.000000000 1.000000000
    outer loop
      vertex 0.049039264 0.009754516 0.000000000
      vertex 0.053943190 0.010729968 0.000000000
      vertex 0.052631718 0.015965657 0.000000000
    endloop
  endfacet
  facet normal 0.000000000 0.000000000 1.000000000
    outer loop
      vertex 0.049039264 0.009754516 0.000000000
      vertex 0.052631718 0.015965657 0.000000000
      vertex 0.047847017 0.014514234 0.000000000
    endloop
  endfacet
  facet normal 0.000000000 0.000000000 1.000000000
    outer loop
      vertex 0.047847017 0.014514234 0.000000000
      vertex 0.052631718 0.015965657 0.000000000
      vertex 0.050813374 0.021047589 0.000000000
    endloop
  endfacet
  facet normal 0.000000000 0.000000000 1.000000000
    outer loop
      vertex 0.047847017 0.014514234 0.000000000
      vertex 0.050813374 0.021047589 0.000000000
      vertex 0.046193977 0.019134172 0.000000000
    endloop
  endfacet
  facet normal 0.000000000 0.000000000 1.000000000
    outer loop
      vertex 0.046193977 0.019134172 0.000000000
      vertex 0.050813374 0.021047589 0.000000000
      vertex 0.048505670 0.025926821 0.000000000
    endloop
  endfacet
  facet normal 0.000000000 0.000000000 1.000000000
    outer loop
      vertex 0.046193977 0.019134172 0.000000000
      vertex 0.048505670 0.025926821 0.000000000
      vertex 0.044096063 0.023569837 0.000000000
    endloop
  endfacet
  facet normal 0.000000000 0.000000000 1.000000000
    outer loop
      vertex 0.044096063 0.023569837 0.000000000
      vertex 0.048505670 0.025926821 0.000000000
      vertex 0.045730829 0.030556363 0.000000000
    endloop
  endfacet
  facet normal 0.000000000 0.000000000 1.000000000
    outer loop
      vertex 0.044096063 0.023569837 0.000000000
      vertex 0.045730829 0.030556363 0.000000000
      vertex 0.041573481 0.027778512 0.000000000
    endloop
  endfacet
  facet normal 0.000000000 0.000000000 1.000000000
    outer loop
      vertex 0.041573481 0.027778512 0.000000000
      vertex 0.045730829 0.030556363 0.000000000
      vertex 0.042515575 0.034891631 0.000000000
    endloop
  endfacet
  facet normal 0.000000000 0.000000000 1.000000000
    outer loop
      vertex 0.041573481 0.027778512 0.000000000
      vertex 0.042515575 0.034891631 0.000000000
      vertex 0.038650523 0.031719664 0.000000000
    endloop
  endfacet
  facet normal 0.000000000 0.000000000 1.000000000
    outer loop
      vertex 0.038650523 0.031719664 0.000000000
      vertex 0.042515575 0.034891631 0.000000000
      vertex 0.038890873 0.038890873 0.000000000
    endloop
  endfacet
  facet normal 0.000000000 0.000000000 1.000000000
    outer loop
      vertex 0.038650523 0.031719664 0.000000000
      vertex 0.038890873 0.038890873 0.000000000
      vertex 0.035355339 0.035355339 0.000000000
    endloop
  endfacet
  facet normal 0.000000000 0.000000000 1.000000000
    outer loop
      vertex 0.035355339 0.035355339 0.000000000
      vertex 0.038890873 0.038890873 0.000000000
      vertex 0.034891631 0.042515575 0.000000000
    endloop
  endfacet
  facet normal 0.000000000 0.000000000 1.000000000
    outer loop
      vertex 0.035355339 0.035355339 0.000000000
      vertex 0.034891631 0.042515575 0.000000000
      vertex 0.031719664 0.038650523 0.000000000
    endloop
  endfacet
  facet normal 0.000000000 0.000000000 1.000000000
    outer loop
      vertex 0.031719664 0.038650523 0.000000000
      vertex 0.034891631 0.042515575 0.000000000
      vertex 0.030556363 0.045730829 0.000000000
    endloop
  endfacet
  facet normal 0.000000000 0.000000000 1.000000000
    outer loop
      vertex 0.031719664 0.038650523 0.000000000
      vertex 0.030556363 0.045730829 0.000000000
      vertex 0.027778512 0.041573481 0.000000000
    endloop
  endfacet
  facet normal 0.000000000 0.000000000 1.000000000
    outer loop
      vertex 0.027778512 0.041573481 0.000000000
      vertex 0.030556363 0.045730829 0.000000000
      vertex 0.025926821 0.048505670 0.000000000
    endloop
  endfacet
  facet normal 0.000000000 0.000000000 1.000000000
    outer loop
      vertex 0.027778512 0.041573481 0.000000000
      vertex 0.025926821 0.048505670 0.000000000
      vertex 0.023569837 0.044096063 0.000000000
    endloop
  endfacet
  facet normal 0.000000000 0.000000000 1.000000000
    outer loop
      vertex 0.023569837 0.044096063 0.000000000
      vertex 0.025926821 0.048505670 0.000000000
      vertex 0.021047589 0.050813374 0.000000000
    endloop
  endfacet
  facet normal 0.000000000 0.000000000 1.000000000
    outer loop
      vertex 0.023569837 0.044096063 0.000000000
      vertex 0.021047589 0.050813374 0.000000000
      vertex 0.019134172 0.046193977 0.000000000
    endloop
  endfacet
  facet normal 0.000000000 0.000000000 1.000000000
    outer loop
      vertex 0.019134172 0.046193977 0.000000000
      vertex 0.021047589 0.050813374 0.000000000
      vertex 0.015965657 0.052631718 0.000000000
    endloop
  endfacet
  facet normal 0.000000000 0.000000000 1.000000000
    outer loop
      vertex 0.019134172 0.046193977 0.000000000
      vertex 0.015965657 0.052631718 0.000000000
      vertex 0.014514234 0.047847017 0.000000000
    endloop
  endfacet
  facet normal 0.000000000 0.000000000 1.000000000
    outer loop
      vertex 0.014514234 0.047847017 0.000000000
      vertex 0.015965657 0.052631718 0.000000000
      vertex 0.010729968 0.053943190 0.000000000
    endloop
  endfacet
  facet normal 0.000000000 0.000000000 1.000000000
    outer loop
      vertex 0.014514234 0.047847017 0.000000000
      vertex 0.010729968 0.053943190 0.000000000
      vertex 0.009754516 0.049039264 0.000000000
    endloop
  endfacet
  facet normal 0.000000000 0.000000000 1.000000000
    outer loop
      vertex 0.009754516 0.049039264 0.000000000
      vertex 0.010729968 0.053943190 0.000000000
      vertex 0.005390943 0.054735160 0.000000000
    endloop
  endfacet
  facet normal 0.000000000 0.000000000 1.000000000
    outer loop
      vertex 0.009754516 0.049039264 0.000000000
      vertex 0.005390943 0.054735160 0.000000000
      vertex 0.004900857 0.049759236 0.000000000
    endloop
  endfacet
  facet normal 0.000000000 0.000000000 1.000000000
    outer loop
      vertex 0.004900857 0.049759236 0.000000000
      vertex 0.005390943 0.054735160 0.000000000
      vertex 0.000000000 0.055000000 0.000000000
    endloop
  endfacet
  facet normal 0.000000000 0.000000000 1.000000000
    outer loop
      vertex 0.004900857 0.049759236 0.000000000
      vertex 0.000000000 0.055000000 0.000000000
      vertex 0.000000000 0.050000000 0.000000000
    endloop
  endfacet
  facet normal 0.000000000 0.000000000 1.000000000
    outer loop
      vertex 0.000000000 0.050000000 0.000000000
      vertex 0.000000000 0.055000000 0.000000000
      vertex -0.005390943 0.054735160 0.000000000
    endloop
  endfacet
  facet normal 0.000000000 0.000000000 1.000000000
    outer loop
      vertex 0.000000000 0.050000000 0.000000000
      vertex -0.005390943 0.054735160 0.000000000
      vertex -0.004900857 0.049759236 0.000000000
    endloop
  endfacet
  facet normal 0.000000000 0.000000000 1.000000000
    outer loop
      vertex -0.004900857 0.049759236 0.000000000
      vertex -0.005390943 0.054735160 0.000000000
      vertex -0.010729968 0.053943190 0.000000000
    endloop
  endfacet
  facet normal 0.000000000 0.000000000 1.000000000
    outer loop
      vertex -0.004900857 0.049759236 0.000000000
      vertex -0.010729968 0.053943190 0.000000000
      vertex -0.009754516 0.049039264 0.000000000
    endloop
  endfacet
  facet normal 0.000000000 0.000000000 1.000000000
    outer loop
      vertex -0.009754516 0.049039264 0.000000000
      vertex -0.010729968 0.053943190 0.000000000
      vertex -0.015965657 0.052631718 0.000000000
    endloop
  endfacet
  facet normal 0.000000000 0.000000000 1.000000000
    outer loop
      vertex -0.009754516 0.049039264 0.000000000
      vertex -0.015965657 0.052631718 0.000000000
      vertex -0.014514234 0.047847017 0.000000000
    endloop
  endfacet
  facet normal 0.000000000 0.000000000 1.000000000
    outer loop
      vertex -0.014514234 0.047847017 0.000000000
      vertex -0.015965657 0.052631718 0.000000000
      vertex -0.021047589 0.050813374 0.000000000
    endloop
  endfacet
  facet normal 0.000000000 0.000000000 1.000000000
    outer loop
      vertex -0.014514234 0.047847017 0.000000000
      vertex -0.021047589 0.050813374 0.000000000
      vertex -0.019134172 0.046193977 0.000000000
    endloop
  endfacet
  facet normal 0.000000000 0.000000000 1.000000000
    outer loop
      vertex -0.019134172 0.046193977 0.000000000
      vertex -0.021047589 0.050813374 0.000000000
      vertex -0.025926821 0.048505670 0.000000000
    endloop
  endfacet
  facet normal 0.000000000 0.000000000 1.000000000
    outer loop
      vertex -0.019134172 0.046193977 0.000000000
      vertex -0.025926821 0.048505670 0.000000000
      vertex -0.023569837 0.044096063 0.000000000
    endloop
  endfacet
  facet normal 0.000000000 0.000000000 1.000000000
    outer loop
      vertex -0.023569837 0.044096063 0.000000000
      vertex -0.025926821 0.048505670 0.000000000
      vertex -0.030556363 0.045730829 0.000000000
    endloop
  endfacet
  facet normal 0.000000000 0.000000000 1.000000000
    outer loop
      vertex -0.023569837 0.044096063 0.000000000
      vertex -0.030556363 0.045730829 0.000000000
      vertex -0.027778512 0.041573481 0.000000000
    endloop
  endfacet
  facet normal 0.000000000 0.000000000 1.000000000
    outer loop
      vertex -0.027778512 0.041573481 0.000000000
      vertex -0.030556363 0.045730829 0.000000000
      vertex -0.034891631 0.042515575 0.000000000
    endloop
  endfacet
  facet normal 0.000000000 0.000000000 1.000000000
    outer loop
      vertex -0.027778512 0.041573481 0.000000000
      vertex -0.034891631 0.042515575 0.000000000
      vertex -0.031719664 0.038650523 0.000000000
    endloop
  endfacet
  facet normal 0.000000000 0.000000000 1.000000000
    outer loop
      vertex -0.031719664 0.038650523 0.000000000
      vertex -0.034891631 0.042515575 0.000000000
      vertex -0.038890873 0.038890873 0.000000000
    endloop
  endfacet
  facet normal 0.000000000 0.000000000 1.000000000
    outer loop
      vertex -0.031719664 0.038650523 0.000000000
      vertex -0.038890873 0.038890873 0.000000000
      vertex -0.035355339 0.035355339 0.000000000
    endloop
  endfacet
  facet normal 0.000000000 0.000000000 1.000000000
    outer loop
      vertex -0.035355339 0.035355339 0.000000000
      vertex -0.038890873 0.038890873 0.000000000
      vertex -0.042515575 0.034891631 0.000000000
    endloop
  endfacet
  facet normal 0.000000000 0.000000000 1.000000000
    outer loop
      vertex -0.035355339 0.035355339 0.000000000
      vertex -0.042515575 0.034891631 0.000000000
      vertex -0.038650523 0.031719664 0.000000000
    endloop
  endfacet
  facet normal 0.000000000 0.000000000 1.000000000
    outer loop
      vertex -0.038650523 0.031719664 0.000000000
      vertex -0.042515575 0.034891631 0.000000000
      vertex -0.045730829 0.030556363 0.000000000
    endloop
  endfacet
  facet normal 0.000000000 0.000000000 1.000000000
    outer loop
      vertex -0.038650523 0.031719664 0.000000000
      vertex -0.045730829 0.030556363 0.000000000
      vertex -0.041573481 0.027778512 0.000000000
    endloop
  endfacet
  facet normal 0.000000000 0.000000000 1.000000000
    outer loop
      vertex -0.041573481 0.027778512 0.000000000
      vertex -0.045730829 0.030556363 0.000000000
      vertex -0.048505670 0.025926821 0.000000000
    endloop
  endfacet
  facet normal 0.000000000 0.000000000 1.000000000
    outer loop
      vertex -0.041573481 0.027778512 0.000000000
      vertex -0.048505670 0.025926821 0.000000000
      vertex -0.044096063 0.023569837 0.000000000
    endloop
  endfacet
  facet normal 0.000000000 0.000000000 1.000000000
    outer loop
      vertex -0.044096063 0.023569837 0.000000000
      vertex -0.048505670 0.025926821 0.000000000
      vertex -0.050813374 0.021047589 0.000000000
    endloop
  endfacet
  facet normal 0.000000000 0.000000000 1.000000000
    outer loop
      vertex -0.044096063 0.023569837 0.000000000
      vertex -0.050813374 0.021047589 0.000000000
      vertex -0.046193977 0.019134172 0.000000000
    endloop
  endfacet
  facet normal 0.000000000 0.000000000 1.000000000
    outer loop
      vertex -0.046193977 0.019134172 0.000000000
      vertex -0.050813374 0.021047589 0.000000000
      vertex -0.052631718 0.015965657 0.000000000
    endloop
  endfacet
  facet normal 0.000000000 0.000000000 1.000000000
    outer loop
      vertex -0.046193977 0.019134172 0.000000000
      vertex -0.052631718 0.015965657 0.000000000
      vertex -0.047847017 0.014514234 0.000000000
    endloop
  endfacet
  facet normal 0.000000000 0.000000000 1.000000000
    outer loop
      vertex -0.047847017 0.014514234 0.000000000
      vertex -0.052631718 0.015965657 0.000000000
      vertex -0.053943190 0.010729968 0.000000000
    endloop
  endfacet
  facet normal 0.000000000 0.000000000 1.000000000
    outer loop
      vertex -0.047847017 0.014514234 0.000000000
      vertex -0.053943190 0.010729968 0.000000000
      vertex -0.049039264 0.009754516 0.000000000
    endloop
  endfacet
  facet normal 0.000000000 0.000000000 1.000000000
    outer loop
      vertex -0.049039264 0.009754516 0.000000000
      vertex -0.053943190 0.010729968 0.000000000
      vertex -0.054735160 0.005390943 0.000000000
    endloop
  endfacet
  facet normal 0.000000000 0.000000000 1.000000000
    outer loop
      vertex -0.049039264 0.009754516 0.000000000
      vertex -0.054735160 0.005390943 0.000000000
      vertex -0.049759236 0.004900857 0.000000000
    endloop
  endfacet
  facet normal 0.000000000 0.000000000 1.000000000
    outer loop
      vertex -0.049759236 0.004900857 0.000000000
      vertex -0.054735160 0.005390943 0.000000000
      vertex -0.055000000 0.000000000 0.000000000
    endloop
  endfacet
  facet normal 0.000000000 0.000000000 1.000000000
    outer loop
      vertex -0.049759236 0.004900857 0.000000000
      vertex -0.055000000 0.000000000 0.000000000
      vertex -0.050000000 0.000000000 0.000000000
    endloop
  endfacet
  facet normal 0.000000000 0.000000000 1.000000000
    outer loop
      vertex -0.050000000 0.000000000 0.000000000
      vertex -0.055000000 0.000000000 0.000000000
      vertex -0.054735160 -0.005390943 0.000000000
    endloop
  endfacet
  facet normal 0.000000000 0.000000000 1.000000000
    outer loop
      vertex -0.050000000 0.000000000 0.000000000
      vertex -0.054735160 -0.005390943 0.000000000
      vertex -0.049759236 -0.004900857 0.000000000
    endloop
  endfacet
  facet normal 0.000000000 0.000000000 1.000000000
    outer loop
      vertex -0.049759236 -0.004900857 0.000000000
      vertex -0.054735160 -0.005390943 0.000000000
      vertex -0.053943190 -0.010729968 0.000000000
    endloop
  endfacet
  facet normal 0.000000000 0.000000000 1.000000000
    outer loop
      vertex -0.049759236 -0.004900857 0.000000000
      vertex -0.053943190 -0.010729968 0.000000000
      vertex -0.049039264 -0.009754516 0.000000000
    endloop
  endfacet
  facet normal 0.000000000 0.000000000 1.000000000
    outer loop
      vertex -0.049039264 -0.009754516 0.000000000
      vertex -0.053943190 -0.010729968 0.000000000
      vertex -0.052631718 -0.015965657 0.000000000
    endloop
  endfacet
  facet normal 0.000000000 0.000000000 1.000000000
    outer loop
      vertex -0.049039264 -0.009754516 0.000000000
      vertex -0.052631718 -0.015965657 0.000000000
      vertex -0.047847017 -0.014514234 0.000000000
    endloop
  endfacet
  facet normal 0.000000000 0.000000000 1.000000000
    outer loop
      vertex -0.047847017 -0.014514234 0.000000000
      vertex -0.052631718 -0.015965657 0.000000000
      vertex -0.050813374 -0.021047589 0.000000000
    endloop
  endfacet
  facet normal 0.000000000 0.000000000 1.000000000
    outer loop
      vertex -0.047847017 -0.014514234 0.000000000
      vertex -0.050813374 -0.021047589 0.000000000
      vertex -0.046193977 -0.019134172 0.000000000
    endloop
  endfacet
  facet normal 0.000000000 0.000000000 1.000000000
    outer loop
      vertex -0.046193977 -0.019134172 0.000000000
      vertex -0.050813374 -0.021047589 0.000000000
      vertex -0.048505670 -0.025926821 0.000000000
    endloop
  endfacet
  facet normal 0.000000000 0.000000000 1.000000000
    outer loop
      vertex -0.046193977 -0.019134172 0.000000000
      vertex -0.048505670 -0.025926821 0.000000000
      vertex -0.044096063 -0.023569837 0.000000000
    endloop
  endfacet
  facet normal 0.000000000 0.000000000 1.000000000
    outer loop
      vertex -0.044096063 -0.023569837 0.000000000
      vertex -0.048505670 -0.025926821 0.000000000
      vertex -0.045730829 -0.030556363 0.000000000
    endloop
  endfacet
  facet normal 0.000000000 0.000000000 1.000000000
    outer loop
      vertex -0.044096063 -0.023569837 0.000000000
      vertex -0.045730829 -0.030556363 0.000000000
      vertex -0.041573481 -0.027778512 0.000000000
    endloop
  endfacet
  facet normal 0.000000000 0.000000000 1.000000000
    outer loop
      vertex -0.041573481 -0.027778512 0.000000000
      vertex -0.045730829 -0.030556363 0.000000000
      vertex -0.042515575 -0.034891631 0.000000000
    endloop
  endfacet
  facet normal 0.000000000 0.000000000 1.000000000
    outer loop
      vertex -0.041573481 -0.027778512 0.000000000
      vertex -0.042515575 -0.034891631 0.000000000
      vertex -0.038650523 -0.031719664 0.000000000
    endloop
  endfacet
  facet normal 0.000000000 0.000000000 1.000000000
    outer loop
      vertex -0.038650523 -0.031719664 0.000000000
      vertex -0.042515575 -0.034891631 0.000000000
      vertex -0.038890873 -0.038890873 0.000000000
    endloop
  endfacet
  facet normal 0.000000000 0.000000000 1.000000000
    outer loop
      vertex -0.038650523 -0.031719664 0.000000000
      vertex -0.038890873 -0.038890873 0.000000000
      vertex -0.035355339 -0.035355339 0.000000000
    endloop
  endfacet
  facet normal 0.000000000 0.000000000 1.000000000
    outer loop
      vertex -0.035355339 -0.035355339 0.000000000
      vertex -0.038890873 -0.038890873 0.000000000
      vertex -0.034891631 -0.042515575 0.000000000
    endloop
  endfacet
  facet normal 0.000000000 0.000000000 1.000000000
    outer loop
      vertex -0.035355339 -0.035355339 0.000000000
      vertex -0.034891631 -0.042515575 0.000000000
      vertex -0.031719664 -0.038650523 0.000000000
    endloop
  endfacet
  facet normal 0.000000000 0.000000000 1.000000000
    outer loop
      vertex -0.031719664 -0.038650523 0.000000000
      vertex -0.034891631 -0.042515575 0.000000000
      vertex -0.030556363 -0.045730829 0.000000000
    endloop
  endfacet
  facet normal 0.000000000 0.000000000 1.000000000
    outer loop
      vertex -0.031719664 -0.038650523 0.000000000
      vertex -0.030556363 -0.045730829 0.000000000
      vertex -0.027778512 -0.041573481 0.000000000
    endloop
  endfacet
  facet normal 0.000000000 0.000000000 1.000000000
    outer loop
      vertex -0.027778512 -0.041573481 0.000000000
      vertex -0.030556363 -0.045730829 0.000000000
      vertex -0.025926821 -0.048505670 0.000000000
    endloop
  endfacet
  facet normal 0.000000000 0.000000000 1.000000000
    outer loop
      vertex -0.027778512 -0.041573481 0.000000000
      vertex -0.025926821 -0.048505670 0.000000000
      vertex -0.023569837 -0.044096063 0.000000000
    endloop
  endfacet
  facet normal 0.000000000 0.000000000 1.000000000
    outer loop
      vertex -0.023569837 -0.044096063 0.000000000
      vertex -0.025926821 -0.048505670 0.000000000
      vertex -0.021047589 -0.050813374 0.000000000
    endloop
  endfacet
  facet normal 0.000000000 0.000000000 1.000000000
    outer loop
      vertex -0.023569837 -0.044096063 0.000000000
      vertex -0.021047589 -0.050813374 0.000000000
      vertex -0.019134172 -0.046193977 0.000000000
    endloop
  endfacet
  facet normal 0.000000000 0.000000000 1.000000000
    outer loop
      vertex -0.019134172 -0.046193977 0.000000000
      vertex -0.021047589 -0.050813374 0.000000000
      vertex -0.015965657 -0.052631718 0.000000000
    endloop
  endfacet
  facet normal 0.000000000 0.000000000 1.000000000
    outer loop
      vertex -0.019134172 -0.046193977 0.000000000
      vertex -0.015965657 -0.052631718 0.000000000
      vertex -0.014514234 -0.047847017 0.000000000
    endloop
  endfacet
  facet normal 0.000000000 0.000000000 1.000000000
    outer loop
      vertex -0.014514234 -0.047847017 0.000000000
      vertex -0.015965657 -0.052631718 0.000000000
      vertex -0.010729968 -0.053943190 0.000000000
    endloop
  endfacet
  facet normal 0.000000000 0.000000000 1.000000000
    outer loop
      vertex -0.014514234 -0.047847017 0.000000000
      vertex -0.010729968 -0.053943190 0.000000000
      vertex -0.009754516 -0.049039264 0.000000000
    endloop
  endfacet
  facet normal 0.000000000 0.000000000 1.000000000
    outer loop
      vertex -0.009754516 -0.049039264 0.000000000
      vertex -0.010729968 -0.053943190 0.000000000
      vertex -0.005390943 -0.054735160 0.000000000
    endloop
  endfacet
  facet normal 0.000000000 0.000000000 1.000000000
    outer loop
      vertex -0.009754516 -0.049039264 0.000000000
      vertex -0.005390943 -0.054735160 0.000000000
      vertex -0.004900857 -0.049759236 0.000000000
    endloop
  endfacet
  facet normal 0.000000000 0.000000000 1.000000000
    outer loop
      vertex -0.004900857 -0.049759236 0.000000000
      vertex -0.005390943 -0.054735160 0.000000000
      vertex 0.000000000 -0.055000000 0.000000000
    endloop
  endfacet
  facet normal 0.000000000 0.000000000 1.000000000
    outer loop
      vertex -0.004900857 -0.049759236 0.000000000
      vertex 0.000000000 -0.055000000 0.000000000
      vertex 0.000000000 -0.050000000 0.000000000
    endloop
  endfacet
  facet normal 0.000000000 0.000000000 1.000000000
    outer loop
      vertex 0.000000000 -0.050000000 0.000000000
      vertex 0.000000000 -0.055000000 0.000000000
      vertex 0.005390943 -0.054735160 0.000000000
    endloop
  endfacet
  facet normal 0.000000000 0.000000000 1.000000000
    outer loop
      vertex 0.000000000 -0.050000000 0.000000000
      vertex 0.005390943 -0.054735160 0.000000000
      vertex 0.004900857 -0.049759236 0.000000000
    endloop
  endfacet
  facet normal 0.000000000 0.000000000 1.000000000
    outer loop
      vertex 0.004900857 -0.049759236 0.000000000
      vertex 0.005390943 -0.054735160 0.000000000
      vertex 0.010729968 -0.053943190 0.000000000
    endloop
  endfacet
  facet normal 0.000000000 0.000000000 1.000000000
    outer loop
      vertex 0.004900857 -0.049759236 0.000000000
      vertex 0.010729968 -0.053943190 0.000000000
      vertex 0.009754516 -0.049039264 0.000000000
    endloop
  endfacet
  facet normal 0.000000000 0.000000000 1.000000000
    outer loop
      vertex 0.009754516 -0.049039264 0.000000000
      vertex 0.010729968 -0.053943190 0.000000000
      vertex 0.015965657 -0.052631718 0.000000000
    endloop
  endfacet
  facet normal 0.000000000 0.000000000 1.000000000
    outer loop
      vertex 0.009754516 -0.049039264 0.000000000
      vertex 0.015965657 -0.052631718 0.000000000
      vertex 0.014514234 -0.047847017 0.000000000
    endloop
  endfacet
  facet normal 0.000000000 0.000000000 1.000000000
    outer loop
      vertex 0.014514234 -0.047847017 0.000000000
      vertex 0.015965657 -0.052631718 0.000000000
      vertex 0.021047589 -0.050813374 0.000000000
    endloop
  endfacet
  facet normal 0.000000000 0.000000000 1.000000000
    outer loop
      vertex 0.014514234 -0.047847017 0.000000000
      vertex 0.021047589 -0.050813374 0.000000000
      vertex 0.019134172 -0.046193977 0.000000000
    endloop
  endfacet
  facet normal 0.000000000 0.000000000 1.000000000
    outer loop
      vertex 0.019134172 -0.046193977 0.000000000
      vertex 0.021047589 -0.050813374 0.000000000
      vertex 0.025926821 -0.048505670 0.000000000
    endloop
  endfacet
  facet normal 0.000000000 0.000000000 1.000000000
    outer loop
      vertex 0.019134172 -0.046193977 0.000000000
      vertex 0.025926821 -0.048505670 0.000000000
      vertex 0.023569837 -0.044096063 0.000000000
    endloop
  endfacet
  facet normal 0.000000000 0.000000000 1.000000000
    outer loop
      vertex 0.023569837 -0.044096063 0.000000000
      vertex 0.025926821 -0.048505670 0.000000000
      vertex 0.030556363 -0.045730829 0.000000000
    endloop
  endfacet
  facet normal 0.000000000 0.000000000 1.000000000
    outer loop
      vertex 0.023569837 -0.044096063 0.000000000
      vertex 0.030556363 -0.045730829 0.000000000
      vertex 0.027778512 -0.041573481 0.000000000
    endloop
  endfacet
  facet normal 0.000000000 0.000000000 1.000000000
    outer loop
      vertex 0.027778512 -0.041573481 0.000000000
      vertex 0.030556363 -0.045730829 0.000000000
      vertex 0.034891631 -0.042515575 0.000000000
    endloop
  endfacet
  facet normal 0.000000000 0.000000000 1.000000000
    outer loop
      vertex 0.027778512 -0.041573481 0.000000000
      vertex 0.034891631 -0.042515575 0.000000000
      vertex 0.031719664 -0.038650523 0.000000000
    endloop
  endfacet
  facet normal 0.000000000 0.000000000 1.000000000
    outer loop
      vertex 0.031719664 -0.038650523 0.000000000
      vertex 0.034891631 -0.042515575 0.000000000
      vertex 0.038890873 -0.038890873 0.000000000
    endloop
  endfacet
  facet normal 0.000000000 0.000000000 1.000000000
    outer loop
      vertex 0.031719664 -0.038650523 0.000000000
      vertex 0.038890873 -0.038890873 0.000000000
      vertex 0.035355339 -0.035355339 0.000000000
    endloop
  endfacet
  facet normal 0.000000000 0.000000000 1.000000000
    outer loop
      vertex 0.035355339 -0.035355339 0.000000000
      vertex 0.038890873 -0.038890873 0.000000000
      vertex 0.042515575 -0.034891631 0.000000000
    endloop
  endfacet
  facet normal 0.000000000 0.000000000 1.000000000
    outer loop
      vertex 0.035355339 -0.035355339 0.000000000
      vertex 0.042515575 -0.034891631 0.000000000
      vertex 0.038650523 -0.031719664 0.000000000
    endloop
  endfacet
  facet normal 0.000000000 0.000000000 1.000000000
    outer loop
      vertex 0.038650523 -0.031719664 0.000000000
      vertex 0.042515575 -0.034891631 0.000000000
      vertex 0.045730829 -0.030556363 0.000000000
    endloop
  endfacet
  facet normal 0.000000000 0.000000000 1.000000000
    outer loop
      vertex 0.038650523 -0.031719664 0.000000000
      vertex 0.045730829 -0.030556363 0.000000000
      vertex 0.041573481 -0.027778512 0.000000000
    endloop
  endfacet
  facet normal 0.000000000 0.000000000 1.000000000
    outer loop
      vertex 0.041573481 -0.027778512 0.000000000
      vertex 0.045730829 -0.030556363 0.000000000
      vertex 0.048505670 -0.025926821 0.000000000
    endloop
  endfacet
  facet normal 0.000000000 0.000000000 1.000000000
    outer loop
      vertex 0.041573481 -0.027778512 0.000000000
      vertex 0.048505670 -0.025926821 0.000000000
      vertex 0.044096063 -0.023569837 0.000000000
    endloop
  endfacet
  facet normal 0.000000000 0.000000000 1.000000000
    outer loop
      vertex 0.044096063 -0.023569837 0.000000000
      vertex 0.048505670 -0.025926821 0.000000000
      vertex 0.050813374 -0.021047589 0.000000000
    endloop
  endfacet
  facet normal 0.000000000 0.000000000 1.000000000
    outer loop
      vertex 0.044096063 -0.023569837 0.000000000
      vertex 0.050813374 -0.021047589 0.000000000
      vertex 0.046193977 -0.019134172 0.000000000
    endloop
  endfacet
  facet normal 0.000000000 0.000000000 1.000000000
    outer loop
      vertex 0.046193977 -0.019134172 0.000000000
      vertex 0.050813374 -0.021047589 0.000000000
      vertex 0.052631718 -0.015965657 0.000000000
    endloop
  endfacet
  facet normal 0.000000000 0.000000000 1.000000000
    outer loop
      vertex 0.046193977 -0.019134172 0.000000000
      vertex 0.052631718 -0.015965657 0.000000000
      vertex 0.047847017 -0.014514234 0.000000000
    endloop
  endfacet
  facet normal 0.000000000 0.000000000 1.000000000
    outer loop
      vertex 0.047847017 -0.014514234 0.000000000
      vertex 0.052631718 -0.015965657 0.000000000
      vertex 0.053943190 -0.010729968 0.000000000
    endloop
  endfacet
  facet normal 0.000000000 0.000000000 1.000000000
    outer loop
      vertex 0.047847017 -0.014514234 0.000000000
      vertex 0.053943190 -0.010729968 0.000000000
      vertex 0.049039264 -0.009754516 0.000000000
    endloop
  endfacet
  facet normal 0.000000000 0.000000000 1.000000000
    outer loop
      vertex 0.049039264 -0.009754516 0.000000000
      vertex 0.053943190 -0.010729968 0.000000000
      vertex 0.054735160 -0.005390943 0.000000000
    endloop
  endfacet
  facet normal 0.000000000 0.000000000 1.000000000
    outer loop
      vertex 0.049039264 -0.009754516 0.000000000
      vertex 0.054735160 -0.005390943 0.000000000
      vertex 0.049759236 -0.004900857 0.000000000
    endloop
  endfacet
  facet normal 0.000000000 0.000000000 1.000000000
    outer loop
      vertex 0.049759236 -0.004900857 0.000000000
      vertex 0.054735160 -0.005390943 0.000000000
      vertex 0.055000000 0.000000000 0.000000000
    endloop
  endfacet
  facet normal 0.000000000 0.000000000 1.000000000
    outer loop
      vertex 0.049759236 -0.004900857 0.000000000
      vertex 0.055000000 0.000000000 0.000000000
      vertex 0.050000000 0.000000000 0.000000000
    endloop
  endfacet
endsolid target_landing_tolerance_ring
